<svg xmlns="http://www.w3.org/2000/svg" viewBox="0 0 640 420" role="img" aria-labelledby="title desc">
  <title id="title">Professional goal city illustration</title>
  <desc id="desc">Office buildings, a briefcase, and a rising career path.</desc>
  <rect width="640" height="420" fill="#fffaf1"/>
  <rect x="96" y="132" width="126" height="190" rx="8" fill="#c99b5a"/>
  <rect x="256" y="86" width="148" height="236" rx="8" fill="#8c6239"/>
  <rect x="438" y="158" width="106" height="164" rx="8" fill="#d8b174"/>
  <g fill="#fff4dc">
    <rect x="124" y="164" width="25" height="25" rx="4"/>
    <rect x="169" y="164" width="25" height="25" rx="4"/>
    <rect x="124" y="214" width="25" height="25" rx="4"/>
    <rect x="169" y="214" width="25" height="25" rx="4"/>
    <rect x="290" y="123" width="26" height="26" rx="4"/>
    <rect x="344" y="123" width="26" height="26" rx="4"/>
    <rect x="290" y="177" width="26" height="26" rx="4"/>
    <rect x="344" y="177" width="26" height="26" rx="4"/>
    <rect x="466" y="191" width="24" height="24" rx="4"/>
    <rect x="466" y="240" width="24" height="24" rx="4"/>
  </g>
  <rect x="246" y="293" width="148" height="72" rx="16" fill="#533414"/>
  <rect x="291" y="268" width="58" height="38" rx="12" fill="none" stroke="#533414" stroke-width="12"/>
  <path d="M134 94c84-62 163 33 235-22 37-28 60-41 111-35" fill="none" stroke="#f1c24b" stroke-width="13" stroke-linecap="round"/>
  <path d="M460 18l34 20-37 14" fill="none" stroke="#f1c24b" stroke-width="12" stroke-linecap="round" stroke-linejoin="round"/>
</svg>
