<svg xmlns="http://www.w3.org/2000/svg" viewBox="0 0 640 420" role="img" aria-labelledby="title desc">
  <title id="title">Resume desk illustration</title>
  <desc id="desc">A laptop, resume, coffee cup, and pencil on a desk.</desc>
  <rect width="640" height="420" fill="#f9fbff"/>
  <rect x="70" y="270" width="500" height="46" rx="8" fill="#8fb3d9"/>
  <rect x="126" y="101" width="220" height="150" rx="12" fill="#17324d"/>
  <rect x="146" y="121" width="180" height="100" rx="4" fill="#dceefc"/>
  <rect x="106" y="251" width="260" height="24" rx="7" fill="#486f96"/>
  <rect x="395" y="83" width="130" height="188" rx="10" fill="#ffffff" stroke="#17324d" stroke-width="8"/>
  <rect x="420" y="118" width="80" height="10" rx="5" fill="#8fb3d9"/>
  <rect x="420" y="148" width="64" height="10" rx="5" fill="#8fb3d9"/>
  <rect x="420" y="178" width="78" height="10" rx="5" fill="#8fb3d9"/>
  <circle cx="470" cy="226" r="24" fill="#f2b84b"/>
  <path d="M456 226l10 10 20-25" fill="none" stroke="#17324d" stroke-width="7" stroke-linecap="round" stroke-linejoin="round"/>
  <rect x="78" y="153" width="34" height="92" rx="14" fill="#f2b84b"/>
  <rect x="70" y="141" width="50" height="22" rx="8" fill="#ffffff" stroke="#17324d" stroke-width="6"/>
  <path d="M206 174h60M206 196h80" stroke="#17324d" stroke-width="10" stroke-linecap="round"/>
</svg>
